<svg width="131" height="40" viewBox="0 0 131 40" fill="none" xmlns="http://www.w3.org/2000/svg">
<path d="M51.0238 14.362L51.2031 15.7385C51.0238 15.945 50.7011 16.14 50.2589 16.3121L50.3067 23.8716C50.7728 24.0436 51.0836 24.2272 51.2628 24.4107L51.0955 25.7872L47.0677 25.8102L46.8884 24.4337C47.0318 24.2501 47.3545 24.0666 47.8326 23.883L47.7848 16.3236C47.3067 16.163 46.9959 15.9794 46.8286 15.7615L46.9959 14.385L51.0238 14.362ZM57.1074 25.7414L54.2509 25.7528L50.3903 19.8223L53.2469 16.14C52.9242 16.0024 52.6971 15.8533 52.5776 15.6927L52.7449 14.3505L56.6771 14.3276L56.8564 15.6697C56.701 15.8418 56.4022 16.0253 55.96 16.2089L53.0078 19.7534L55.7568 23.6766C56.5098 23.8257 57.0118 24.0551 57.2986 24.3763L57.1074 25.7414Z" fill="#444445"/>
<path d="M62.2946 25.8331C60.9201 25.8446 59.8802 25.5005 59.1751 24.7892C58.4699 24.0895 58.1233 23.0686 58.1113 21.715C58.1113 20.9005 58.2189 20.2008 58.4579 19.6043C58.697 19.0078 59.0197 18.5604 59.4261 18.2392C60.2269 17.6198 61.1591 17.2986 62.2228 17.2986C63.2866 17.2986 64.1113 17.551 64.685 18.0672C65.2587 18.5834 65.5455 19.524 65.5575 20.8776C65.5575 21.6691 65.1631 22.0706 64.3384 22.0706L60.5974 22.0935C60.6452 22.7933 60.8364 23.2751 61.1711 23.5618C61.5057 23.8486 62.0197 23.9863 62.7368 23.9863C63.1312 23.9863 63.5017 23.9404 63.8603 23.8486C64.2188 23.7568 64.4698 23.6651 64.6372 23.5848L64.8762 23.4471L65.4021 24.7663C65.3304 24.8466 65.2348 24.9384 65.1033 25.0531C64.9718 25.1678 64.6372 25.3284 64.1113 25.5234C63.5854 25.7184 62.9758 25.8331 62.2946 25.8331ZM63.3463 20.6252C63.3702 20.4761 63.3822 20.2811 63.3822 20.0631C63.3822 19.8452 63.2866 19.6043 63.1073 19.3634C62.9161 19.111 62.6053 18.9963 62.1511 18.9963C61.697 18.9963 61.3503 19.134 61.1113 19.3978C60.8723 19.6617 60.7169 20.109 60.6332 20.7399L63.3463 20.6252Z" fill="#444445"/>
<path d="M70.1112 15.3141L70.1232 17.4019L72.5853 17.3904L72.5973 18.7784L70.1351 18.7899L70.159 22.9768C70.159 23.3324 70.2188 23.5848 70.3144 23.7454C70.422 23.906 70.661 23.9863 71.0554 23.9863C71.4499 23.9863 71.8682 23.8945 72.3104 23.7339L72.8363 25.0187C71.9519 25.4546 71.0554 25.6725 70.1232 25.684C69.2029 25.684 68.5694 25.5005 68.2467 25.1219C67.912 24.7434 67.7447 24.1928 67.7447 23.4586L67.7089 18.8128H66.932L66.7407 17.8034C66.92 17.5969 67.3025 17.3789 67.8762 17.1724C68.0077 16.2662 68.3304 15.6583 68.8443 15.3256L70.1112 15.3141Z" fill="#444445"/>
<path d="M78.0116 25.7413C76.649 25.7528 75.645 25.4087 74.9757 24.7204C74.3183 24.0322 73.9837 22.9768 73.9717 21.5773C73.9598 20.1664 74.3184 19.0996 75.0474 18.3425C75.7765 17.5969 76.8163 17.2183 78.1789 17.2068C79.5414 17.1954 80.5574 17.528 81.2267 18.1819C81.896 18.8357 82.2306 19.8681 82.2426 21.2791C82.2545 22.69 81.884 23.7798 81.155 24.5598C80.4259 25.3399 79.3741 25.7413 78.0116 25.7413ZM76.4578 21.4167C76.4697 23.1833 77.0315 24.0551 78.1311 24.0551C78.6928 24.0551 79.1111 23.8486 79.3741 23.4471C79.637 23.0456 79.7685 22.3803 79.7685 21.4741C79.7566 19.7534 79.1948 18.8931 78.0594 18.9046C77.5096 18.9046 77.1032 19.0996 76.8402 19.4781C76.5773 19.8567 76.4578 20.5105 76.4578 21.4167Z" fill="#444445"/>
<path d="M94.613 16.0597C94.2664 15.9221 93.7525 15.8532 93.0593 15.8532C92.3661 15.8532 91.8163 16.1515 91.3979 16.725C90.9796 17.2986 90.7764 18.3081 90.7764 19.7419C90.7884 21.1758 90.9916 22.1853 91.4099 22.7933C91.8163 23.3898 92.4258 23.688 93.2386 23.688C94.4696 23.6765 95.5692 23.493 96.5373 23.1374L97.1708 24.6057C95.9636 25.3054 94.5294 25.661 92.8919 25.6725C91.2545 25.684 90.0593 25.2481 89.3302 24.3533C88.5892 23.4701 88.2187 22.0018 88.2067 19.9828C88.1948 17.9524 88.637 16.4497 89.5334 15.4747C90.4298 14.4996 91.6967 14.0064 93.3222 13.9949C94.637 13.9834 95.88 14.3276 97.0632 15.0158C97.0632 15.0847 97.0632 15.2108 97.0632 15.3944C97.0632 15.5779 97.0274 15.8991 96.9437 16.358C96.872 16.8053 96.7525 17.1839 96.6091 17.4707L94.9716 17.4821C94.8043 17.1609 94.6848 16.6906 94.613 16.0597Z" fill="#444445"/>
<path d="M100.888 27.3932C101.091 27.3932 101.318 27.2097 101.545 26.8311C101.772 26.464 101.94 26.0167 102.023 25.5119L99.1548 19.1111C98.593 18.939 98.2106 18.7325 98.0193 18.4916L98.1867 17.2183L102.155 17.1954L102.334 18.4687C102.191 18.6407 101.94 18.8128 101.581 18.9505L102.549 21.4397C102.764 21.9559 102.908 22.4721 102.991 22.9768L103.039 23.2063H103.278C103.362 22.6556 103.529 22.0706 103.744 21.4626L104.641 19.0078C104.211 18.8587 103.912 18.6752 103.744 18.4457L103.912 17.1724L107.701 17.1495L107.88 18.4228C107.677 18.6752 107.294 18.8931 106.744 19.0766L103.948 25.5464C103.41 26.7738 103.003 27.5653 102.728 27.9209C102.226 28.5747 101.521 28.9074 100.625 28.9074C99.7285 28.9074 99.0353 28.6894 98.5572 28.2421C98.5452 28.1274 98.5333 28.0241 98.5333 27.9094C98.5333 27.3014 98.6528 26.7279 98.9157 26.1887L100.35 26.1773C100.529 26.4755 100.625 26.877 100.649 27.3817L100.888 27.3932Z" fill="#444445"/>
<path d="M112.912 18.6866C111.86 18.6981 111.334 19.5699 111.346 21.3135C111.346 22.1968 111.501 22.8047 111.8 23.1489C112.099 23.493 112.517 23.6651 113.067 23.6651C113.94 23.6651 114.704 23.5733 115.374 23.4242L115.9 24.6975C115.529 24.9269 115.039 25.1334 114.418 25.294C113.796 25.4546 113.198 25.5463 112.613 25.5463C110.127 25.5578 108.884 24.1927 108.86 21.4397C108.848 19.8337 109.278 18.6751 110.127 17.9639C110.892 17.3445 111.824 17.0233 112.924 17.0233C114.023 17.0118 114.943 17.2068 115.685 17.5969C115.696 17.7116 115.708 17.8148 115.708 17.9066C115.708 18.5375 115.565 19.134 115.278 19.6961L113.76 19.7075C113.593 19.4322 113.497 19.0996 113.461 18.721C113.33 18.6981 113.139 18.6866 112.912 18.6866Z" fill="#444445"/>
<path d="M117.119 13.6393C117.764 13.4902 118.362 13.4214 118.912 13.4099C119.461 13.4099 119.928 13.4214 120.31 13.4558L120.37 23.5274C120.824 23.688 121.135 23.8716 121.326 24.0895L121.159 25.3628L117.191 25.3858L117.011 24.1125C117.167 23.906 117.489 23.711 117.955 23.5389L117.908 15.4747C117.501 15.3485 117.191 15.165 116.951 14.9126L117.119 13.6393Z" fill="#444445"/>
<path d="M126.74 25.4546C125.366 25.4661 124.326 25.1219 123.621 24.4107C122.916 23.711 122.569 22.69 122.557 21.3365C122.557 20.522 122.665 19.8223 122.904 19.2258C123.143 18.6293 123.465 18.1819 123.872 17.8607C124.673 17.2413 125.605 16.9201 126.668 16.9201C127.732 16.9201 128.557 17.1724 129.131 17.6886C129.704 18.2048 129.991 19.1455 130.003 20.4991C130.003 21.2906 129.609 21.6921 128.784 21.6921L125.043 21.715C125.091 22.4147 125.282 22.8965 125.617 23.1833C125.951 23.4701 126.465 23.6077 127.182 23.6077C127.577 23.6077 127.947 23.5619 128.306 23.4701C128.665 23.3783 128.915 23.2865 129.083 23.2062L129.322 23.0686L129.848 24.3878C129.776 24.4681 129.68 24.5598 129.549 24.6746C129.417 24.7893 129.083 24.9499 128.557 25.1449C128.019 25.3513 127.421 25.4431 126.74 25.4546ZM127.792 20.2352C127.816 20.0861 127.828 19.8911 127.828 19.6731C127.828 19.4552 127.732 19.2143 127.553 18.9734C127.362 18.721 127.051 18.6063 126.597 18.6063C126.143 18.6063 125.796 18.744 125.557 19.0078C125.318 19.2717 125.163 19.719 125.079 20.3499L127.792 20.2352Z" fill="#444445"/>
<path fill-rule="evenodd" clip-rule="evenodd" d="M6.76524 8.5118C9.92059 8.48886 12.1676 6.77966 12.6576 5.28842C13.9245 4.47397 16.9484 4.94428 18.6815 5.51784C27.3826 5.46048 34.4941 12.194 34.5538 20.5106C34.5777 23.6078 33.6216 26.6018 31.7929 29.1483L34.0877 30.6511C36.2391 27.6571 37.3626 24.1469 37.3387 20.4991C37.2789 10.7143 28.9005 2.79918 18.6695 2.86801C16.9365 3.45304 13.9365 3.96924 12.6576 3.16626C12.1317 1.67501 9.86083 -0.0227122 6.69353 0.000229997C3.55013 0.0117011 0.681636 1.5603 0.645779 4.25601V4.32484C0.717492 7.02056 3.60989 8.53474 6.76524 8.5118ZM11.6058 5.32283C11.4983 5.48343 9.15566 8.84446 4.02822 6.75672C4.27921 6.81407 7.75727 7.60558 11.6058 5.32283Z" fill="#EE3A66"/>
<path fill-rule="evenodd" clip-rule="evenodd" d="M27.7651 37.7746L36.5857 37.6484L36.5738 36.7881L27.6934 36.9143L27.6814 36.1113L36.5618 35.9851L36.5499 35.0674L27.6695 35.2051L27.6575 34.4021L36.5379 34.2759L36.5259 33.5418L29.0081 33.037C29.0081 33.037 28.7212 33.0141 28.6137 33.0141C27.4543 33.037 26.4264 33.5532 25.7691 34.3677C22.6854 37.0405 19.4584 35.2968 18.7054 35.3083C9.98038 35.3657 2.84498 28.6665 2.79718 20.3959C2.77327 17.3904 3.69358 14.4768 5.43859 11.9875L3.11988 10.5078C1.05217 13.4444 -0.0235143 16.8628 0.00038988 20.4073C0.0601503 30.1463 8.46246 38.0155 18.7173 37.9581C19.5898 37.9467 23.2352 36.444 25.9962 38.9332C25.9962 38.9332 26.0081 38.9332 26.0081 38.9447C26.6416 39.5526 27.4902 39.9426 28.4463 40C28.5181 40 28.6854 40 28.6854 40L36.5977 39.2544V38.4514L27.7651 38.5891V37.7746Z" fill="#EE3A66"/>
<path fill-rule="evenodd" clip-rule="evenodd" d="M11.2354 26.5674L11.5103 28.6322L17.7014 28.5977L17.9524 26.5329C17.6895 26.2576 17.1995 25.9823 16.4943 25.7185L16.4226 14.3277C17.1038 14.0753 17.5939 13.7885 17.8688 13.4673L17.5939 11.4025L11.4027 11.4369L11.1517 13.5017C11.4027 13.8115 11.8927 14.0982 12.6099 14.3391L12.6816 25.73C11.9525 26.0053 11.4625 26.2806 11.2354 26.5674Z" fill="#EE3A66"/>
<path fill-rule="evenodd" clip-rule="evenodd" d="M26.6655 28.5404L26.9164 26.4756C26.4981 25.9938 25.7093 25.6382 24.5738 25.4202L20.3906 19.5126L24.8965 14.1785C25.5539 13.9032 26.0081 13.6394 26.2591 13.3756L25.9842 11.3567L19.9962 11.3911L19.7452 13.41C19.9364 13.6394 20.283 13.8688 20.7731 14.0753L16.4225 19.6388L22.3149 28.5748L26.6655 28.5404Z" fill="#EE3A66"/>
</svg>
