<svg width="110" height="36" viewBox="0 0 110 36" fill="none" xmlns="http://www.w3.org/2000/svg">
<path fill-rule="evenodd" clip-rule="evenodd" d="M5.7243 7.54743C8.39414 7.52736 10.2954 6.03181 10.71 4.72697C11.782 4.01433 14.3406 4.42586 15.807 4.92772C23.1693 4.87753 29.1866 10.7694 29.2371 18.0464C29.2574 20.7564 28.4483 23.3761 26.901 25.6044L28.8427 26.9193C30.6631 24.2996 31.6137 21.2282 31.5935 18.0363C31.5429 9.47458 24.4537 2.54889 15.7969 2.60912C14.3305 3.12102 11.7921 3.57269 10.71 2.87009C10.2651 1.56525 8.34358 0.0797362 5.66362 0.0998106C3.00389 0.109848 0.576755 1.46487 0.546415 3.82362V3.88385C0.607094 6.24259 3.05445 7.56751 5.7243 7.54743ZM9.82008 4.75708C9.72906 4.89761 7.74691 7.83851 3.40841 6.01174C3.62078 6.06192 6.56368 6.75449 9.82008 4.75708Z" fill="white"/>
<path fill-rule="evenodd" clip-rule="evenodd" d="M23.4929 33.1524L30.9564 33.042L30.9463 32.2892L23.4323 32.3996L23.4222 31.697L30.9362 31.5866L30.926 30.7836L23.412 30.904L23.4019 30.2014L30.9159 30.091L30.9058 29.4487L24.5447 29.007C24.5447 29.007 24.302 28.9869 24.211 28.9869C23.23 29.007 22.3603 29.4587 21.8041 30.1713C19.1949 32.51 16.4644 30.9843 15.8273 30.9944C8.44473 31.0446 2.40724 25.1828 2.36678 17.946C2.34656 15.3162 3.12526 12.7668 4.60177 10.5887L2.63984 9.2939C0.890278 11.8634 -0.0198962 14.8545 0.00032989 17.956C0.0508951 26.4776 7.16037 33.3632 15.8374 33.313C16.5756 33.3029 19.6601 31.9881 21.9962 34.1661C21.9962 34.1661 22.0063 34.1661 22.0063 34.1762C22.5423 34.7082 23.2603 35.0494 24.0694 35.0996C24.1301 35.0996 24.2717 35.0996 24.2717 35.0996L30.9665 34.4472V33.7446L23.4929 33.865V33.1524Z" fill="white"/>
<path fill-rule="evenodd" clip-rule="evenodd" d="M9.50661 23.346L9.73921 25.1527L14.9778 25.1226L15.1901 23.3159C14.9677 23.075 14.553 22.8341 13.9564 22.6033L13.8957 12.6363C14.4721 12.4155 14.8868 12.1646 15.1194 11.8835L14.8868 10.0768L9.6482 10.1069L9.43582 11.9136C9.6482 12.1846 10.0628 12.4356 10.6696 12.6464L10.7303 22.6133C10.1134 22.8542 9.69876 23.0951 9.50661 23.346Z" fill="white"/>
<path fill-rule="evenodd" clip-rule="evenodd" d="M22.5625 25.0724L22.7749 23.2657C22.4209 22.8442 21.7535 22.533 20.7927 22.3423L17.2532 17.1731L21.0658 12.5058C21.622 12.2649 22.0063 12.0341 22.2187 11.8032L21.9861 10.0367L16.9194 10.0668L16.7071 11.8333C16.8689 12.0341 17.1622 12.2348 17.5768 12.4155L13.8956 17.2836L18.8814 25.1026L22.5625 25.0724Z" fill="white"/>
<path d="M43.173 12.6664L43.3247 13.8709C43.173 14.0515 42.8999 14.2222 42.5257 14.3727L42.5662 20.9873C42.9606 21.1378 43.2235 21.2984 43.3752 21.459L43.2336 22.6635L39.8255 22.6835L39.6738 21.4791C39.7952 21.3185 40.0683 21.1579 40.4728 20.9973L40.4323 14.3828C40.0278 14.2422 39.7649 14.0816 39.6233 13.8909L39.7649 12.6865L43.173 12.6664ZM48.3205 22.6233L45.9035 22.6334L42.637 17.4441L45.054 14.2222C44.7809 14.1017 44.5888 13.9712 44.4877 13.8307L44.6292 12.6564L47.9564 12.6363L48.1081 13.8106C47.9767 13.9612 47.7238 14.1218 47.3497 14.2824L44.8517 17.3839L47.1777 20.8166C47.8149 20.9471 48.2396 21.1478 48.4823 21.4289L48.3205 22.6233Z" fill="white"/>
<path d="M52.7095 22.7036C51.5465 22.7136 50.6667 22.4125 50.07 21.7902C49.4734 21.1779 49.1801 20.2846 49.17 19.1002C49.17 18.3876 49.261 17.7753 49.4632 17.2534C49.6655 16.7315 49.9386 16.34 50.2824 16.059C50.96 15.517 51.7488 15.2359 52.6488 15.2359C53.5489 15.2359 54.2467 15.4567 54.7321 15.9084C55.2176 16.3601 55.4603 17.1831 55.4704 18.3675C55.4704 19.0601 55.1367 19.4114 54.4389 19.4114L51.2735 19.4315C51.3139 20.0437 51.4757 20.4653 51.7589 20.7162C52.0421 20.9672 52.4769 21.0876 53.0837 21.0876C53.4174 21.0876 53.7309 21.0475 54.0343 20.9672C54.3377 20.8869 54.5501 20.8066 54.6917 20.7363L54.894 20.6159L55.3389 21.7701C55.2782 21.8404 55.1973 21.9207 55.0861 22.0211C54.9749 22.1214 54.6917 22.262 54.2467 22.4326C53.8017 22.6032 53.286 22.7036 52.7095 22.7036ZM53.5995 18.1467C53.6197 18.0162 53.6298 17.8456 53.6298 17.6549C53.6298 17.4642 53.5489 17.2534 53.3972 17.0426C53.2354 16.8218 52.9725 16.7214 52.5882 16.7214C52.2039 16.7214 51.9106 16.8419 51.7083 17.0727C51.5061 17.3036 51.3746 17.695 51.3038 18.2471L53.5995 18.1467Z" fill="white"/>
<path d="M59.3235 13.4995L59.3336 15.3263L61.4169 15.3162L61.427 16.5307L59.3437 16.5408L59.3639 20.2044C59.3639 20.5155 59.4145 20.7363 59.4954 20.8768C59.5864 21.0174 59.7887 21.0876 60.1224 21.0876C60.4561 21.0876 60.8101 21.0073 61.1843 20.8668L61.6293 21.991C60.8809 22.3724 60.1224 22.5631 59.3336 22.5731C58.5549 22.5731 58.0189 22.4125 57.7458 22.0813C57.4627 21.7501 57.3211 21.2683 57.3211 20.6259L57.2907 16.5608H56.6334L56.4716 15.6776C56.6233 15.4969 56.9469 15.3062 57.4323 15.1255C57.5436 14.3326 57.8166 13.8006 58.2515 13.5095L59.3235 13.4995Z" fill="white"/>
<path d="M66.0082 22.6233C64.8553 22.6333 64.0058 22.3322 63.4395 21.73C62.8833 21.1278 62.6001 20.2043 62.59 18.9798C62.5799 17.7452 62.8833 16.8118 63.5002 16.1493C64.1171 15.4969 64.9969 15.1656 66.1498 15.1556C67.3027 15.1456 68.1623 15.4367 68.7286 16.0088C69.2949 16.5809 69.5781 17.4842 69.5882 18.7188C69.5983 19.9534 69.2848 20.9069 68.6679 21.5895C68.051 22.272 67.1611 22.6233 66.0082 22.6233ZM64.6935 18.8393C64.7036 20.385 65.1789 21.1478 66.1093 21.1478C66.5846 21.1478 66.9386 20.9672 67.1611 20.6159C67.3836 20.2646 67.4948 19.6824 67.4948 18.8895C67.4847 17.3839 67.0094 16.6311 66.0487 16.6411C65.5835 16.6411 65.2396 16.8118 65.0171 17.143C64.7946 17.4742 64.6935 18.0463 64.6935 18.8393Z" fill="white"/>
<path d="M80.0553 14.1519C79.762 14.0314 79.3271 13.9712 78.7406 13.9712C78.154 13.9712 77.6888 14.2322 77.3349 14.734C76.9809 15.2359 76.809 16.1192 76.809 17.3738C76.8191 18.6285 76.991 19.5118 77.345 20.0437C77.6888 20.5657 78.2046 20.8266 78.8923 20.8266C79.9339 20.8166 80.8643 20.656 81.6835 20.3448L82.2195 21.6296C81.1981 22.2419 79.9845 22.553 78.599 22.5631C77.2135 22.5731 76.2022 22.1917 75.5853 21.4088C74.9583 20.6359 74.6448 19.3512 74.6347 17.5846C74.6246 15.808 74.9987 14.4931 75.7572 13.64C76.5157 12.7868 77.5877 12.3552 78.9631 12.3452C80.0755 12.3351 81.1273 12.6363 82.1285 13.2385C82.1285 13.2987 82.1285 13.4091 82.1285 13.5697C82.1285 13.7303 82.0981 14.0114 82.0273 14.4128C81.9666 14.8043 81.8655 15.1355 81.7442 15.3865L80.3587 15.3965C80.2171 15.1155 80.116 14.7039 80.0553 14.1519Z" fill="white"/>
<path d="M85.3646 24.0687C85.5365 24.0687 85.7287 23.9081 85.9208 23.5769C86.1129 23.2557 86.2545 22.8642 86.3253 22.4226L83.8982 16.8218C83.4229 16.6713 83.0993 16.4906 82.9374 16.2798L83.079 15.1657L86.4366 15.1456L86.5883 16.2597C86.4669 16.4103 86.2545 16.5608 85.9511 16.6813L86.7703 18.8594C86.9523 19.311 87.0737 19.7627 87.1445 20.2044L87.1849 20.4051H87.3872C87.458 19.9233 87.5996 19.4114 87.7816 18.8794L88.5401 16.7315C88.176 16.601 87.9232 16.4404 87.7816 16.2397L87.9232 15.1255L91.129 15.1054L91.2807 16.2196C91.1088 16.4404 90.7852 16.6311 90.32 16.7917L87.9535 22.4527C87.4984 23.5267 87.1546 24.2192 86.922 24.5304C86.4972 25.1025 85.9006 25.3936 85.1421 25.3936C84.3836 25.3936 83.7971 25.2029 83.3925 24.8114C83.3824 24.7111 83.3723 24.6207 83.3723 24.5204C83.3723 23.9884 83.4734 23.4865 83.6959 23.0148L84.9095 23.0047C85.0612 23.2657 85.1421 23.617 85.1623 24.0586L85.3646 24.0687Z" fill="white"/>
<path d="M95.5383 16.4504C94.6484 16.4605 94.2034 17.2233 94.2135 18.7489C94.2135 19.5218 94.345 20.0538 94.5978 20.3549C94.8506 20.656 95.2046 20.8066 95.6698 20.8066C96.408 20.8066 97.0553 20.7263 97.6216 20.5958L98.0666 21.7099C97.7531 21.9107 97.3384 22.0913 96.8126 22.2319C96.2867 22.3724 95.781 22.4527 95.2855 22.4527C93.182 22.4627 92.1302 21.2683 92.11 18.8594C92.0999 17.4541 92.464 16.4404 93.182 15.8181C93.8292 15.2761 94.618 14.995 95.5484 14.995C96.4788 14.985 97.2575 15.1556 97.8846 15.4969C97.8947 15.5972 97.9048 15.6876 97.9048 15.7679C97.9048 16.3199 97.7834 16.8419 97.5407 17.3337L96.2563 17.3437C96.1148 17.1028 96.0339 16.8118 96.0035 16.4805C95.8923 16.4605 95.7305 16.4504 95.5383 16.4504Z" fill="white"/>
<path d="M99.0982 12.034C99.6443 11.9036 100.15 11.8433 100.615 11.8333C101.08 11.8333 101.475 11.8433 101.798 11.8735L101.849 20.6861C102.233 20.8267 102.496 20.9873 102.658 21.178L102.516 22.2921L99.1588 22.3122L99.0071 21.198C99.1386 21.0174 99.4117 20.8467 99.8061 20.6962L99.7656 13.64C99.4218 13.5296 99.1588 13.369 98.9566 13.1482L99.0982 12.034Z" fill="white"/>
<path d="M107.239 22.3724C106.076 22.3824 105.196 22.0813 104.6 21.459C104.003 20.8467 103.71 19.9534 103.7 18.769C103.7 18.0564 103.791 17.4441 103.993 16.9222C104.195 16.4002 104.468 16.0088 104.812 15.7277C105.49 15.1857 106.278 14.9047 107.178 14.9047C108.079 14.9047 108.776 15.1255 109.262 15.5772C109.747 16.0289 109.99 16.8519 110 18.0363C110 18.7289 109.666 19.0802 108.968 19.0802L105.803 19.1003C105.844 19.7125 106.005 20.1341 106.289 20.385C106.572 20.636 107.007 20.7564 107.613 20.7564C107.947 20.7564 108.261 20.7163 108.564 20.636C108.867 20.5557 109.08 20.4754 109.221 20.4051L109.424 20.2847L109.869 21.4389C109.808 21.5092 109.727 21.5895 109.616 21.6899C109.504 21.7902 109.221 21.9308 108.776 22.1014C108.321 22.2821 107.816 22.3624 107.239 22.3724ZM108.129 17.8055C108.149 17.675 108.159 17.5043 108.159 17.3136C108.159 17.1229 108.079 16.9121 107.927 16.7014C107.765 16.4805 107.502 16.3802 107.118 16.3802C106.733 16.3802 106.44 16.5006 106.238 16.7315C106.036 16.9623 105.904 17.3538 105.833 17.9058L108.129 17.8055Z" fill="white"/>
</svg>
